<mxfile host="drawio-plugin" modified="2023-03-30T08:08:11.872Z" agent="5.0 (Windows NT 6.2; Win64; x64) AppleWebKit/537.36 (KHTML, like Gecko) Chrome/104.0.5112.102 Safari/537.36" version="20.5.3" etag="dxF1krwRShRBCAXOjzZW" type="embed" pages="4"><diagram id="jzIP0kA3noL5s-mRh03O" name="add new task"><mxGraphModel dx="1086" dy="742" grid="1" gridSize="10" guides="1" tooltips="1" connect="1" arrows="1" fold="1" page="1" pageScale="1" pageWidth="850" pageHeight="1100" math="0" shadow="0"><root><mxCell id="0"/><mxCell id="1" parent="0"/><mxCell id="2" value="Gpuapp controller" style="rounded=0;whiteSpace=wrap;html=1;" vertex="1" parent="1"><mxGeometry x="30" y="520" width="120" height="60" as="geometry"/></mxCell><mxCell id="3" value="TaskGroup controller" style="rounded=0;whiteSpace=wrap;html=1;" vertex="1" parent="1"><mxGeometry x="283" y="520" width="120" height="60" as="geometry"/></mxCell><mxCell id="4" value="Task controller" style="rounded=0;whiteSpace=wrap;html=1;" vertex="1" parent="1"><mxGeometry x="536" y="520" width="120" height="60" as="geometry"/></mxCell><mxCell id="5" value="DCGM exporter" style="rounded=0;whiteSpace=wrap;html=1;" vertex="1" parent="1"><mxGeometry x="536" y="760" width="120" height="60" as="geometry"/></mxCell><mxCell id="6" value="ds-config" style="rounded=0;whiteSpace=wrap;html=1;" vertex="1" parent="1"><mxGeometry x="705" y="520" width="120" height="60" as="geometry"/></mxCell><mxCell id="10" value="3. Get gpu utility by pod" style="endArrow=classic;html=1;rounded=0;entryX=0.5;entryY=0;entryDx=0;entryDy=0;exitX=0.5;exitY=1;exitDx=0;exitDy=0;" edge="1" parent="1" source="4" target="5"><mxGeometry width="50" height="50" relative="1" as="geometry"><mxPoint x="700" y="650" as="sourcePoint"/><mxPoint x="635" y="570" as="targetPoint"/></mxGeometry></mxCell><mxCell id="11" value="6. Get pod spec" style="endArrow=classic;html=1;rounded=0;exitX=0;exitY=0.5;exitDx=0;exitDy=0;entryX=1;entryY=0.5;entryDx=0;entryDy=0;" edge="1" parent="1" source="3" target="2"><mxGeometry width="50" height="50" relative="1" as="geometry"><mxPoint x="305" y="730" as="sourcePoint"/><mxPoint x="355" y="680" as="targetPoint"/></mxGeometry></mxCell><mxCell id="37N_Gq_AOKcYxlsWVQx2-21" value="K8S Resource" style="rounded=0;whiteSpace=wrap;html=1;dashed=1;labelPosition=center;verticalLabelPosition=top;align=center;verticalAlign=bottom;" vertex="1" parent="1"><mxGeometry y="230" width="840" height="160" as="geometry"/></mxCell><mxCell id="7" value="Pod" style="rounded=0;whiteSpace=wrap;html=1;flipV=0;" vertex="1" parent="1"><mxGeometry x="199" y="280" width="120" height="60" as="geometry"/></mxCell><mxCell id="8" value="1. add new task" style="endArrow=classic;html=1;rounded=0;" edge="1" parent="1" source="6"><mxGeometry width="50" height="50" relative="1" as="geometry"><mxPoint x="415" y="320" as="sourcePoint"/><mxPoint x="765" y="340" as="targetPoint"/></mxGeometry></mxCell><mxCell id="9" value="4. Adjust task group" style="endArrow=classic;html=1;rounded=0;entryX=0.5;entryY=1;entryDx=0;entryDy=0;exitX=0.5;exitY=0;exitDx=0;exitDy=0;" edge="1" parent="1" source="4" target="37N_Gq_AOKcYxlsWVQx2-14"><mxGeometry width="50" height="50" relative="1" as="geometry"><mxPoint x="435" y="460" as="sourcePoint"/><mxPoint x="485" y="410" as="targetPoint"/></mxGeometry></mxCell><mxCell id="12" value="7.Update existing pod or start new pod" style="endArrow=classic;html=1;rounded=0;exitX=0.5;exitY=0;exitDx=0;exitDy=0;entryX=0.5;entryY=1;entryDx=0;entryDy=0;" edge="1" parent="1" source="3" target="7"><mxGeometry width="50" height="50" relative="1" as="geometry"><mxPoint x="455" y="390" as="sourcePoint"/><mxPoint x="335" y="390" as="targetPoint"/></mxGeometry></mxCell><mxCell id="37N_Gq_AOKcYxlsWVQx2-12" value="Task" style="rounded=0;whiteSpace=wrap;html=1;flipV=0;" vertex="1" parent="1"><mxGeometry x="705" y="280" width="120" height="60" as="geometry"/></mxCell><mxCell id="37N_Gq_AOKcYxlsWVQx2-13" value="Gpuapp" style="rounded=0;whiteSpace=wrap;html=1;flipV=0;" vertex="1" parent="1"><mxGeometry x="368" y="280" width="120" height="60" as="geometry"/></mxCell><mxCell id="37N_Gq_AOKcYxlsWVQx2-14" value="TaskGroup" style="rounded=0;whiteSpace=wrap;html=1;flipV=0;" vertex="1" parent="1"><mxGeometry x="536" y="280" width="120" height="60" as="geometry"/></mxCell><mxCell id="37N_Gq_AOKcYxlsWVQx2-16" value="2. Event trigger" style="endArrow=classic;html=1;rounded=0;exitX=0.5;exitY=1;exitDx=0;exitDy=0;entryX=0.5;entryY=0;entryDx=0;entryDy=0;" edge="1" parent="1" source="37N_Gq_AOKcYxlsWVQx2-12" target="4"><mxGeometry width="50" height="50" relative="1" as="geometry"><mxPoint x="855" y="490" as="sourcePoint"/><mxPoint x="905" y="440" as="targetPoint"/></mxGeometry></mxCell><mxCell id="37N_Gq_AOKcYxlsWVQx2-18" value="5. Event trigger" style="endArrow=classic;html=1;rounded=0;exitX=0.5;exitY=1;exitDx=0;exitDy=0;entryX=0.5;entryY=0;entryDx=0;entryDy=0;" edge="1" parent="1" source="37N_Gq_AOKcYxlsWVQx2-14" target="3"><mxGeometry width="50" height="50" relative="1" as="geometry"><mxPoint x="775" y="350" as="sourcePoint"/><mxPoint x="775" y="540" as="targetPoint"/></mxGeometry></mxCell><mxCell id="BSzEGZMtccn2xLxIk9il-12" value="ControllerRevision" style="rounded=0;whiteSpace=wrap;html=1;flipV=0;" vertex="1" parent="1"><mxGeometry x="30" y="280" width="120" height="60" as="geometry"/></mxCell></root></mxGraphModel></diagram><diagram id="wjA73zmYQ7qJLqZQLBYu" name="update task"><mxGraphModel dx="1086" dy="742" grid="1" gridSize="10" guides="1" tooltips="1" connect="1" arrows="1" fold="1" page="1" pageScale="1" pageWidth="850" pageHeight="1100" math="0" shadow="0"><root><mxCell id="0"/><mxCell id="1" parent="0"/><mxCell id="fWc3z1895izs78hzoiln-1" value="Gpuapp controller" style="rounded=0;whiteSpace=wrap;html=1;" vertex="1" parent="1"><mxGeometry x="40" y="480" width="120" height="60" as="geometry"/></mxCell><mxCell id="fWc3z1895izs78hzoiln-2" value="TaskGroup controller" style="rounded=0;whiteSpace=wrap;html=1;" vertex="1" parent="1"><mxGeometry x="280" y="480" width="120" height="60" as="geometry"/></mxCell><mxCell id="fWc3z1895izs78hzoiln-3" value="Task controller" style="rounded=0;whiteSpace=wrap;html=1;" vertex="1" parent="1"><mxGeometry x="520" y="480" width="120" height="60" as="geometry"/></mxCell><mxCell id="fWc3z1895izs78hzoiln-4" value="DCGM exporter" style="rounded=0;whiteSpace=wrap;html=1;" vertex="1" parent="1"><mxGeometry x="520" y="630" width="120" height="60" as="geometry"/></mxCell><mxCell id="fWc3z1895izs78hzoiln-5" value="ds-config" style="rounded=0;whiteSpace=wrap;html=1;" vertex="1" parent="1"><mxGeometry x="680" y="480" width="120" height="60" as="geometry"/></mxCell><mxCell id="fWc3z1895izs78hzoiln-8" value="K8S Resource" style="rounded=0;whiteSpace=wrap;html=1;dashed=1;labelPosition=center;verticalLabelPosition=top;align=center;verticalAlign=bottom;" vertex="1" parent="1"><mxGeometry y="230" width="840" height="160" as="geometry"/></mxCell><mxCell id="fWc3z1895izs78hzoiln-9" value="Pod" style="rounded=0;whiteSpace=wrap;html=1;flipV=1;flipH=0;" vertex="1" parent="1"><mxGeometry x="200" y="280" width="120" height="60" as="geometry"/></mxCell><mxCell id="fWc3z1895izs78hzoiln-10" value="1. update existing task" style="endArrow=classic;html=1;rounded=0;entryX=0.5;entryY=1;entryDx=0;entryDy=0;" edge="1" parent="1" source="fWc3z1895izs78hzoiln-5" target="fWc3z1895izs78hzoiln-15"><mxGeometry width="50" height="50" relative="1" as="geometry"><mxPoint x="415" y="320" as="sourcePoint"/><mxPoint x="765" y="340" as="targetPoint"/></mxGeometry></mxCell><mxCell id="fWc3z1895izs78hzoiln-11" value="3. Update task group" style="endArrow=classic;html=1;rounded=0;entryX=0.5;entryY=1;entryDx=0;entryDy=0;exitX=0.5;exitY=0;exitDx=0;exitDy=0;" edge="1" parent="1" source="fWc3z1895izs78hzoiln-3" target="fWc3z1895izs78hzoiln-17"><mxGeometry width="50" height="50" relative="1" as="geometry"><mxPoint x="435" y="460" as="sourcePoint"/><mxPoint x="485" y="410" as="targetPoint"/></mxGeometry></mxCell><mxCell id="fWc3z1895izs78hzoiln-15" value="Task" style="rounded=0;whiteSpace=wrap;html=1;flipV=1;flipH=0;" vertex="1" parent="1"><mxGeometry x="680" y="280" width="120" height="60" as="geometry"/></mxCell><mxCell id="fWc3z1895izs78hzoiln-16" value="Gpuapp" style="rounded=0;whiteSpace=wrap;html=1;flipV=1;flipH=0;" vertex="1" parent="1"><mxGeometry x="360" y="280" width="120" height="60" as="geometry"/></mxCell><mxCell id="fWc3z1895izs78hzoiln-17" value="TaskGroup" style="rounded=0;whiteSpace=wrap;html=1;flipV=1;flipH=0;" vertex="1" parent="1"><mxGeometry x="520" y="280" width="120" height="60" as="geometry"/></mxCell><mxCell id="fWc3z1895izs78hzoiln-18" value="2. Event trigger" style="endArrow=classic;html=1;rounded=0;exitX=0.5;exitY=1;exitDx=0;exitDy=0;entryX=0.5;entryY=0;entryDx=0;entryDy=0;" edge="1" parent="1" source="fWc3z1895izs78hzoiln-15" target="fWc3z1895izs78hzoiln-3"><mxGeometry width="50" height="50" relative="1" as="geometry"><mxPoint x="855" y="490" as="sourcePoint"/><mxPoint x="905" y="440" as="targetPoint"/></mxGeometry></mxCell><mxCell id="fWc3z1895izs78hzoiln-19" value="4. Event trigger" style="endArrow=classic;html=1;rounded=0;exitX=0.5;exitY=1;exitDx=0;exitDy=0;entryX=0.5;entryY=0;entryDx=0;entryDy=0;" edge="1" parent="1" source="fWc3z1895izs78hzoiln-17" target="fWc3z1895izs78hzoiln-2"><mxGeometry width="50" height="50" relative="1" as="geometry"><mxPoint x="775" y="350" as="sourcePoint"/><mxPoint x="775" y="540" as="targetPoint"/></mxGeometry></mxCell><mxCell id="8nPf3DvjOxE1UNFLe-GE-1" value="ControllerRevision" style="rounded=0;whiteSpace=wrap;html=1;flipV=1;flipH=0;" vertex="1" parent="1"><mxGeometry x="40" y="280" width="120" height="60" as="geometry"/></mxCell></root></mxGraphModel></diagram><diagram id="Aee6jjZZ9hofJr9eaQOD" name="delete task"><mxGraphModel dx="1086" dy="742" grid="1" gridSize="10" guides="1" tooltips="1" connect="1" arrows="1" fold="1" page="1" pageScale="1" pageWidth="850" pageHeight="1100" math="0" shadow="0"><root><mxCell id="0"/><mxCell id="1" parent="0"/><mxCell id="YgKHirAj-VampsSFywxY-1" value="Gpuapp controller" style="rounded=0;whiteSpace=wrap;html=1;" vertex="1" parent="1"><mxGeometry x="15" y="530" width="120" height="60" as="geometry"/></mxCell><mxCell id="YgKHirAj-VampsSFywxY-2" value="TaskGroup controller" style="rounded=0;whiteSpace=wrap;html=1;" vertex="1" parent="1"><mxGeometry x="270" y="530" width="120" height="60" as="geometry"/></mxCell><mxCell id="YgKHirAj-VampsSFywxY-3" value="Task controller" style="rounded=0;whiteSpace=wrap;html=1;" vertex="1" parent="1"><mxGeometry x="520" y="530" width="120" height="60" as="geometry"/></mxCell><mxCell id="YgKHirAj-VampsSFywxY-4" value="DCGM exporter" style="rounded=0;whiteSpace=wrap;html=1;" vertex="1" parent="1"><mxGeometry x="520" y="740" width="120" height="60" as="geometry"/></mxCell><mxCell id="YgKHirAj-VampsSFywxY-5" value="ds-config" style="rounded=0;whiteSpace=wrap;html=1;" vertex="1" parent="1"><mxGeometry x="700" y="530" width="120" height="60" as="geometry"/></mxCell><mxCell id="YgKHirAj-VampsSFywxY-6" value="K8S Resource" style="rounded=0;whiteSpace=wrap;html=1;dashed=1;labelPosition=center;verticalLabelPosition=top;align=center;verticalAlign=bottom;" vertex="1" parent="1"><mxGeometry y="230" width="840" height="160" as="geometry"/></mxCell><mxCell id="YgKHirAj-VampsSFywxY-7" value="Pod" style="rounded=0;whiteSpace=wrap;html=1;flipV=0;" vertex="1" parent="1"><mxGeometry x="180" y="280" width="120" height="60" as="geometry"/></mxCell><mxCell id="YgKHirAj-VampsSFywxY-8" value="1. delete existing task" style="endArrow=classic;html=1;rounded=0;entryX=0.5;entryY=1;entryDx=0;entryDy=0;" edge="1" parent="1" source="YgKHirAj-VampsSFywxY-5" target="YgKHirAj-VampsSFywxY-12"><mxGeometry width="50" height="50" relative="1" as="geometry"><mxPoint x="415" y="320" as="sourcePoint"/><mxPoint x="765" y="340" as="targetPoint"/></mxGeometry></mxCell><mxCell id="YgKHirAj-VampsSFywxY-9" value="3. Update task group" style="endArrow=classic;html=1;rounded=0;entryX=0.5;entryY=1;entryDx=0;entryDy=0;exitX=0.5;exitY=0;exitDx=0;exitDy=0;" edge="1" parent="1" source="YgKHirAj-VampsSFywxY-3" target="YgKHirAj-VampsSFywxY-14"><mxGeometry width="50" height="50" relative="1" as="geometry"><mxPoint x="435" y="460" as="sourcePoint"/><mxPoint x="485" y="410" as="targetPoint"/></mxGeometry></mxCell><mxCell id="YgKHirAj-VampsSFywxY-12" value="Task" style="rounded=0;whiteSpace=wrap;html=1;flipV=0;" vertex="1" parent="1"><mxGeometry x="700" y="280" width="120" height="60" as="geometry"/></mxCell><mxCell id="YgKHirAj-VampsSFywxY-13" value="Gpuapp" style="rounded=0;whiteSpace=wrap;html=1;flipV=0;" vertex="1" parent="1"><mxGeometry x="350" y="280" width="120" height="60" as="geometry"/></mxCell><mxCell id="YgKHirAj-VampsSFywxY-14" value="TaskGroup" style="rounded=0;whiteSpace=wrap;html=1;flipV=0;" vertex="1" parent="1"><mxGeometry x="520" y="280" width="120" height="60" as="geometry"/></mxCell><mxCell id="YgKHirAj-VampsSFywxY-15" value="2. Event trigger" style="endArrow=classic;html=1;rounded=0;exitX=0.5;exitY=1;exitDx=0;exitDy=0;entryX=0.5;entryY=0;entryDx=0;entryDy=0;" edge="1" parent="1" source="YgKHirAj-VampsSFywxY-12" target="YgKHirAj-VampsSFywxY-3"><mxGeometry width="50" height="50" relative="1" as="geometry"><mxPoint x="855" y="490" as="sourcePoint"/><mxPoint x="905" y="440" as="targetPoint"/></mxGeometry></mxCell><mxCell id="YgKHirAj-VampsSFywxY-16" value="4. Event trigger" style="endArrow=classic;html=1;rounded=0;exitX=0.5;exitY=1;exitDx=0;exitDy=0;entryX=0.5;entryY=0;entryDx=0;entryDy=0;" edge="1" parent="1" source="YgKHirAj-VampsSFywxY-14" target="YgKHirAj-VampsSFywxY-2"><mxGeometry width="50" height="50" relative="1" as="geometry"><mxPoint x="775" y="350" as="sourcePoint"/><mxPoint x="775" y="540" as="targetPoint"/></mxGeometry></mxCell><mxCell id="NLKeAxiWhPEvsBzjfMjm-1" value="6. Update existing pod or delete pod" style="endArrow=classic;html=1;rounded=0;exitX=0.5;exitY=0;exitDx=0;exitDy=0;entryX=0.5;entryY=1;entryDx=0;entryDy=0;" edge="1" parent="1" source="YgKHirAj-VampsSFywxY-2" target="YgKHirAj-VampsSFywxY-7"><mxGeometry width="50" height="50" relative="1" as="geometry"><mxPoint x="280" y="450" as="sourcePoint"/><mxPoint x="120" y="430" as="targetPoint"/></mxGeometry></mxCell><mxCell id="tEivy3SMJFNVbahu2-Bh-1" value="ControllerRevision" style="rounded=0;whiteSpace=wrap;html=1;flipV=0;" vertex="1" parent="1"><mxGeometry x="15" y="280" width="120" height="60" as="geometry"/></mxCell></root></mxGraphModel></diagram><diagram id="sWRh9yFfS4qHkc-cFU6f" name="auto scale"><mxGraphModel dx="1086" dy="742" grid="1" gridSize="10" guides="1" tooltips="1" connect="1" arrows="1" fold="1" page="1" pageScale="1" pageWidth="850" pageHeight="1100" math="0" shadow="0"><root><mxCell id="0"/><mxCell id="1" parent="0"/><mxCell id="XdclZsrYUx8VSGgfayTQ-1" value="Gpuapp controller" style="rounded=0;whiteSpace=wrap;html=1;" vertex="1" parent="1"><mxGeometry x="10" y="530" width="120" height="60" as="geometry"/></mxCell><mxCell id="XdclZsrYUx8VSGgfayTQ-2" value="TaskGroup controller" style="rounded=0;whiteSpace=wrap;html=1;" vertex="1" parent="1"><mxGeometry x="180" y="530" width="120" height="60" as="geometry"/></mxCell><mxCell id="XdclZsrYUx8VSGgfayTQ-3" value="Task controller" style="rounded=0;whiteSpace=wrap;html=1;" vertex="1" parent="1"><mxGeometry x="355" y="530" width="120" height="60" as="geometry"/></mxCell><mxCell id="XdclZsrYUx8VSGgfayTQ-4" value="DCGM exporter" style="rounded=0;whiteSpace=wrap;html=1;" vertex="1" parent="1"><mxGeometry x="705" y="760" width="120" height="60" as="geometry"/></mxCell><mxCell id="XdclZsrYUx8VSGgfayTQ-5" value="ds-config" style="rounded=0;whiteSpace=wrap;html=1;" vertex="1" parent="1"><mxGeometry x="530" y="530" width="120" height="60" as="geometry"/></mxCell><mxCell id="XdclZsrYUx8VSGgfayTQ-6" value="K8S Resource" style="rounded=0;whiteSpace=wrap;html=1;dashed=1;labelPosition=center;verticalLabelPosition=top;align=center;verticalAlign=bottom;" vertex="1" parent="1"><mxGeometry y="230" width="840" height="160" as="geometry"/></mxCell><mxCell id="XdclZsrYUx8VSGgfayTQ-7" value="Pod" style="rounded=0;whiteSpace=wrap;html=1;" vertex="1" parent="1"><mxGeometry x="180" y="280" width="120" height="60" as="geometry"/></mxCell><mxCell id="XdclZsrYUx8VSGgfayTQ-8" value="1. get gpu utility" style="endArrow=classic;html=1;rounded=0;exitX=0.5;exitY=1;exitDx=0;exitDy=0;entryX=0.5;entryY=0;entryDx=0;entryDy=0;" edge="1" parent="1" source="XdclZsrYUx8VSGgfayTQ-18" target="XdclZsrYUx8VSGgfayTQ-4"><mxGeometry width="50" height="50" relative="1" as="geometry"><mxPoint x="930" y="320" as="sourcePoint"/><mxPoint x="1280" y="340" as="targetPoint"/></mxGeometry></mxCell><mxCell id="XdclZsrYUx8VSGgfayTQ-9" value="2. Update task group" style="endArrow=classic;html=1;rounded=0;entryX=0.5;entryY=1;entryDx=0;entryDy=0;exitX=0.5;exitY=0;exitDx=0;exitDy=0;" edge="1" parent="1" source="XdclZsrYUx8VSGgfayTQ-18" target="XdclZsrYUx8VSGgfayTQ-14"><mxGeometry width="50" height="50" relative="1" as="geometry"><mxPoint x="435" y="460" as="sourcePoint"/><mxPoint x="485" y="410" as="targetPoint"/></mxGeometry></mxCell><mxCell id="XdclZsrYUx8VSGgfayTQ-12" value="Task" style="rounded=0;whiteSpace=wrap;html=1;" vertex="1" parent="1"><mxGeometry x="705" y="280" width="120" height="60" as="geometry"/></mxCell><mxCell id="XdclZsrYUx8VSGgfayTQ-13" value="Gpuapp" style="rounded=0;whiteSpace=wrap;html=1;" vertex="1" parent="1"><mxGeometry x="355" y="280" width="120" height="60" as="geometry"/></mxCell><mxCell id="XdclZsrYUx8VSGgfayTQ-14" value="TaskGroup" style="rounded=0;whiteSpace=wrap;html=1;" vertex="1" parent="1"><mxGeometry x="530" y="280" width="120" height="60" as="geometry"/></mxCell><mxCell id="XdclZsrYUx8VSGgfayTQ-16" value="4. Event trigger" style="endArrow=classic;html=1;rounded=0;exitX=0.5;exitY=1;exitDx=0;exitDy=0;entryX=0.5;entryY=0;entryDx=0;entryDy=0;" edge="1" parent="1" source="XdclZsrYUx8VSGgfayTQ-14" target="XdclZsrYUx8VSGgfayTQ-2"><mxGeometry width="50" height="50" relative="1" as="geometry"><mxPoint x="775" y="350" as="sourcePoint"/><mxPoint x="775" y="540" as="targetPoint"/></mxGeometry></mxCell><mxCell id="XdclZsrYUx8VSGgfayTQ-17" value="6. Update&amp;nbsp; pod" style="endArrow=classic;html=1;rounded=0;exitX=0.5;exitY=0;exitDx=0;exitDy=0;entryX=0.5;entryY=1;entryDx=0;entryDy=0;" edge="1" parent="1" source="XdclZsrYUx8VSGgfayTQ-2" target="XdclZsrYUx8VSGgfayTQ-7"><mxGeometry width="50" height="50" relative="1" as="geometry"><mxPoint x="280" y="450" as="sourcePoint"/><mxPoint x="120" y="430" as="targetPoint"/></mxGeometry></mxCell><mxCell id="XdclZsrYUx8VSGgfayTQ-18" value="Auto scale controller" style="rounded=0;whiteSpace=wrap;html=1;" vertex="1" parent="1"><mxGeometry x="705" y="530" width="120" height="60" as="geometry"/></mxCell><mxCell id="gSZ6N2T_m3OzvVKHSH19-1" value="ControllerRevision" style="rounded=0;whiteSpace=wrap;html=1;" vertex="1" parent="1"><mxGeometry x="10" y="280" width="120" height="60" as="geometry"/></mxCell></root></mxGraphModel></diagram></mxfile>